<?xml version="1.0" standalone="no"?>
<!DOCTYPE svg PUBLIC "-//W3C//DTD SVG 20010904//EN"
 "http://www.w3.org/TR/2001/REC-SVG-20010904/DTD/svg10.dtd">
<svg version="1.0" xmlns="http://www.w3.org/2000/svg"
 width="2000.000000pt" height="2000.000000pt" viewBox="0 0 2000.000000 2000.000000"
 preserveAspectRatio="xMidYMid meet">

<g transform="translate(0.000000,2000.000000) scale(0.100000,-0.100000)"
fill="#000000" stroke="none">
<path d="M18060 19649 c-52 -4 -139 -19 -193 -34 -54 -14 -134 -28 -177 -30
-43 -2 -88 -8 -99 -14 -11 -6 -33 -11 -49 -11 -17 0 -32 -6 -35 -14 -3 -8 -19
-17 -36 -21 -43 -9 -69 -21 -204 -94 -54 -29 -84 -40 -99 -35 -16 5 -20 3 -15
-9 3 -9 -8 -27 -31 -48 -90 -80 -207 -193 -208 -201 -3 -19 -6 -24 -25 -47
-17 -21 -22 -23 -31 -10 -8 12 -9 12 -5 -2 3 -8 -8 -35 -24 -59 -16 -24 -29
-47 -29 -52 0 -14 -40 -100 -60 -128 -40 -57 -60 -103 -60 -138 -1 -20 -7 -55
-15 -77 -18 -47 -48 -252 -46 -310 1 -22 4 -57 7 -78 5 -31 3 -36 -10 -31 -13
5 -16 -2 -16 -41 0 -55 25 -116 45 -109 10 4 17 -8 25 -38 31 -121 129 -328
199 -423 21 -28 46 -66 56 -85 21 -42 112 -132 201 -200 35 -27 80 -64 98 -82
57 -55 334 -180 475 -214 111 -27 323 -30 487 -5 162 24 196 36 379 128 50 25
95 50 102 55 9 7 14 2 19 -19 4 -15 13 -34 21 -41 7 -7 13 -20 13 -29 0 -12 3
-13 14 -4 11 10 15 8 19 -6 4 -17 5 -17 6 0 1 20 12 22 29 5 10 -10 15 -10 22
1 10 16 103 17 108 1 7 -19 20 -10 30 19 9 24 14 28 37 23 l28 -5 -33 32 c-20
18 -27 31 -19 32 8 0 4 4 -9 9 -12 5 -25 16 -28 25 -4 8 -11 15 -16 15 -12 0
-48 39 -48 51 0 5 12 15 28 23 41 22 145 128 187 192 41 61 92 158 114 216 8
20 19 34 26 32 10 -4 59 129 79 211 2 11 2 -9 0 -45 -3 -36 -10 -74 -15 -85
-5 -11 -18 -47 -28 -80 -11 -33 -20 -53 -21 -45 -1 16 -69 -117 -69 -135 0 -5
9 9 20 32 13 25 26 40 34 37 22 -9 84 132 121 272 104 401 6 895 -246 1239
-22 30 -170 176 -210 208 -100 78 -150 112 -200 134 -30 13 -64 28 -75 33 -64
30 -180 46 -202 29 -8 -8 -26 -12 -39 -11 -25 4 -48 -26 -35 -47 11 -17 201
-111 201 -99 0 5 -7 11 -16 15 -24 9 -68 52 -61 59 3 3 36 -5 74 -19 37 -14
83 -30 101 -36 36 -11 92 -48 91 -59 -3 -19 2 -32 12 -32 6 0 8 7 5 16 -3 9
15 -4 41 -29 27 -25 62 -56 78 -68 161 -123 290 -321 379 -582 15 -43 25 -84
23 -90 -2 -7 -10 6 -17 28 -18 55 -111 231 -142 270 -52 65 -79 107 -81 126
-2 29 -92 123 -111 116 -7 -3 -26 7 -42 22 -78 71 -289 221 -312 221 -5 0 -36
13 -68 28 -33 16 -88 39 -124 51 -36 13 -72 26 -80 29 -43 15 -188 51 -209 52
-13 0 -22 3 -19 6 6 5 62 15 260 45 43 7 75 16 72 21 -3 4 5 8 17 8 17 0 19 3
10 14 -20 24 -204 37 -351 25z m-370 -73 c0 -2 -9 -6 -20 -9 -11 -3 -18 -1
-14 4 5 9 34 13 34 5z m415 -66 c17 -5 64 -19 105 -31 102 -28 149 -46 190
-73 19 -13 46 -27 60 -31 32 -10 198 -94 213 -109 7 -6 30 -23 52 -38 195
-133 393 -392 469 -613 10 -27 22 -59 28 -69 6 -11 12 -58 14 -105 1 -47 1
-75 -2 -61 -7 41 -34 143 -46 175 -23 63 -80 187 -100 220 -99 157 -97 154
-213 270 -94 94 -117 114 -175 155 -19 13 -37 27 -40 30 -14 18 -250 140 -270
140 -8 0 -28 7 -43 15 -80 42 -372 104 -500 106 l-62 1 45 9 c25 4 68 13 95
18 53 10 130 6 180 -9z m1162 -962 c-3 -8 -6 -5 -6 6 -1 11 2 17 5 13 3 -3 4
-12 1 -19z m-46 -881 c-10 -9 -11 -8 -5 6 3 10 9 15 12 12 3 -3 0 -11 -7 -18z"/>
<path d="M16908 19643 c-10 -2 -18 -9 -18 -14 0 -5 -9 -9 -20 -9 -11 0 -20 -7
-20 -15 0 -8 7 -15 17 -15 15 0 15 -1 0 -18 -10 -10 -17 -26 -17 -36 0 -13 7
-17 33 -14 17 2 31 8 30 14 -1 6 12 11 30 11 17 0 33 5 35 11 2 7 15 12 29 12
25 0 25 1 9 19 -17 18 -17 19 1 24 10 3 5 5 -13 6 -17 0 -37 8 -44 16 -13 15
-21 16 -52 8z"/>
<path d="M18625 19600 c3 -5 10 -10 16 -10 5 0 9 5 9 10 0 6 -7 10 -16 10 -8
0 -12 -4 -9 -10z"/>
<path d="M17067 19583 c-35 -6 -25 -23 14 -23 19 0 29 -5 29 -15 0 -8 7 -15
15 -15 8 0 15 7 15 15 0 8 8 15 18 15 9 1 -1 7 -23 15 -22 8 -40 14 -40 13 0
0 -12 -3 -28 -5z"/>
<path d="M16795 19569 c-11 -16 -1 -19 13 -3 7 8 8 14 3 14 -5 0 -13 -5 -16
-11z"/>
<path d="M17179 19505 c-26 -13 -50 -21 -54 -17 -5 4 -5 2 -2 -4 6 -11 -19
-29 -35 -26 -3 1 -12 -6 -20 -15 -11 -15 -11 -16 7 -9 67 27 79 29 83 18 5
-15 48 -16 57 -2 3 6 15 10 25 10 26 0 53 39 38 57 -16 20 -48 16 -99 -12z"/>
<path d="M16981 19418 c-11 -11 -18 -25 -15 -30 5 -8 54 35 54 48 0 11 -21 2
-39 -18z"/>
<path d="M18610 19420 c0 -5 5 -10 11 -10 5 0 7 5 4 10 -3 6 -8 10 -11 10 -2
0 -4 -4 -4 -10z"/>
<path d="M18670 19352 c0 -19 36 -46 44 -33 3 4 -6 18 -19 29 -22 20 -25 20
-25 4z"/>
<path d="M17030 19345 c-8 -9 -8 -15 -2 -15 12 0 26 19 19 26 -2 2 -10 -2 -17
-11z"/>
<path d="M18747 19324 c6 -15 23 -19 23 -5 0 5 -7 11 -14 14 -10 4 -13 1 -9
-9z"/>
<path d="M16938 19306 c-21 -15 -24 -38 -5 -30 14 5 41 44 30 44 -5 0 -16 -7
-25 -14z"/>
<path d="M18780 19302 c0 -12 19 -26 26 -19 2 2 -2 10 -11 17 -9 8 -15 8 -15
2z"/>
<path d="M16921 19239 c-17 -17 -31 -35 -31 -41 0 -5 13 4 29 21 16 17 34 31
40 31 6 0 11 5 11 10 0 18 -18 10 -49 -21z"/>
<path d="M16717 19062 c-38 -41 -62 -142 -34 -142 16 0 35 32 57 96 21 66 12
85 -23 46z"/>
<path d="M16440 18173 c0 -12 5 -25 10 -28 13 -8 13 15 0 35 -8 12 -10 11 -10
-7z"/>
<path d="M19465 18073 c-19 -18 -19 -57 -1 -72 16 -13 118 -23 110 -10 -3 5 0
9 6 9 6 0 8 5 4 11 -4 7 -9 8 -13 1 -3 -5 -17 7 -30 28 -27 43 -54 55 -76 33z"/>
<path d="M16470 18011 c0 -5 5 -13 10 -16 6 -3 10 -2 10 4 0 5 -4 13 -10 16
-5 3 -10 2 -10 -4z"/>
<path d="M16541 17964 c0 -11 3 -14 6 -6 3 7 2 16 -1 19 -3 4 -6 -2 -5 -13z"/>
<path d="M16641 17924 c0 -11 3 -14 6 -6 3 7 2 16 -1 19 -3 4 -6 -2 -5 -13z"/>
<path d="M16600 17863 c0 -5 5 -15 10 -23 8 -12 10 -11 10 8 0 12 -4 22 -10
22 -5 0 -10 -3 -10 -7z"/>
<path d="M16681 17840 c11 -31 29 -41 29 -16 0 25 -12 46 -26 46 -10 0 -11 -6
-3 -30z"/>
<path d="M19120 17529 c0 -5 5 -7 10 -4 6 3 10 8 10 11 0 2 -4 4 -10 4 -5 0
-10 -5 -10 -11z"/>
<path d="M16930 17455 c7 -8 17 -15 22 -15 6 0 5 7 -2 15 -7 8 -17 15 -22 15
-6 0 -5 -7 2 -15z"/>
<path d="M19013 17397 c-43 -30 -42 -42 2 -16 19 12 35 25 35 30 0 11 2 12
-37 -14z"/>
<path d="M15670 17339 c-52 -4 -139 -19 -193 -34 -54 -14 -134 -28 -177 -30
-43 -2 -88 -8 -99 -14 -11 -6 -33 -11 -49 -11 -17 0 -32 -6 -35 -14 -3 -8 -19
-17 -36 -21 -43 -9 -69 -21 -204 -94 -54 -29 -84 -40 -99 -35 -16 5 -20 3 -15
-9 3 -9 -8 -27 -31 -48 -90 -80 -207 -193 -208 -201 -3 -19 -6 -24 -25 -47
-17 -21 -22 -23 -31 -10 -8 12 -9 12 -5 -2 3 -8 -8 -35 -24 -59 -16 -24 -29
-47 -29 -52 0 -14 -40 -100 -60 -128 -40 -57 -60 -103 -60 -138 -1 -20 -7 -55
-15 -77 -18 -47 -48 -252 -46 -310 1 -22 4 -57 7 -78 5 -31 3 -36 -10 -31 -13
5 -16 -2 -16 -41 0 -55 25 -116 45 -109 10 4 17 -8 25 -38 31 -121 129 -328
199 -423 21 -28 46 -66 56 -85 21 -42 112 -132 201 -200 35 -27 80 -64 98 -82
57 -55 334 -180 475 -214 111 -27 323 -30 487 -5 162 24 196 36 379 128 50 25
95 50 102 55 9 7 14 2 19 -19 4 -15 13 -34 21 -41 7 -7 13 -20 13 -29 0 -12 3
-13 14 -4 11 10 15 8 19 -6 4 -17 5 -17 6 0 1 20 12 22 29 5 10 -10 15 -10 22
1 10 16 103 17 108 1 7 -19 20 -10 30 19 9 24 14 28 37 23 l28 -5 -33 32 c-20
18 -27 31 -19 32 8 0 4 4 -9 9 -12 5 -25 16 -28 25 -4 8 -11 15 -16 15 -12 0
-48 39 -48 51 0 5 12 15 28 23 41 22 145 128 187 192 41 61 92 158 114 216 8
20 19 34 26 32 10 -4 59 129 79 211 2 11 2 -9 0 -45 -3 -36 -10 -74 -15 -85
-5 -11 -18 -47 -28 -80 -11 -33 -20 -53 -21 -45 -1 16 -69 -117 -69 -135 0 -5
9 9 20 32 13 25 26 40 34 37 22 -9 84 132 121 272 104 401 6 895 -246 1239
-22 30 -170 176 -210 208 -100 78 -150 112 -200 134 -30 13 -64 28 -75 33 -64
30 -180 46 -202 29 -8 -8 -26 -12 -39 -11 -25 4 -48 -26 -35 -47 11 -17 201
-111 201 -99 0 5 -7 11 -16 15 -24 9 -68 52 -61 59 3 3 36 -5 74 -19 37 -14
83 -30 101 -36 36 -11 92 -48 91 -59 -3 -19 2 -32 12 -32 6 0 8 7 5 16 -3 9
15 -4 41 -29 27 -25 62 -56 78 -68 161 -123 290 -321 379 -582 15 -43 25 -84
23 -90 -2 -7 -10 6 -17 28 -18 55 -111 231 -142 270 -52 65 -79 107 -81 126
-2 29 -92 123 -111 116 -7 -3 -26 7 -42 22 -78 71 -289 221 -312 221 -5 0 -36
13 -68 28 -33 16 -88 39 -124 51 -36 13 -72 26 -80 29 -43 15 -188 51 -209 52
-13 0 -22 3 -19 6 6 5 62 15 260 45 43 7 75 16 72 21 -3 4 5 8 17 8 17 0 19 3
10 14 -20 24 -204 37 -351 25z m-370 -73 c0 -2 -9 -6 -20 -9 -11 -3 -18 -1
-14 4 5 9 34 13 34 5z m415 -66 c17 -5 64 -19 105 -31 102 -28 149 -46 190
-73 19 -13 46 -27 60 -31 32 -10 198 -94 213 -109 7 -6 30 -23 52 -38 195
-133 393 -392 469 -613 10 -27 22 -59 28 -69 6 -11 12 -58 14 -105 1 -47 1
-75 -2 -61 -7 41 -34 143 -46 175 -23 63 -80 187 -100 220 -99 157 -97 154
-213 270 -94 94 -117 114 -175 155 -19 13 -37 27 -40 30 -14 18 -250 140 -270
140 -8 0 -28 7 -43 15 -80 42 -372 104 -500 106 l-62 1 45 9 c25 4 68 13 95
18 53 10 130 6 180 -9z m1162 -962 c-3 -8 -6 -5 -6 6 -1 11 2 17 5 13 3 -3 4
-12 1 -19z m-46 -881 c-10 -9 -11 -8 -5 6 3 10 9 15 12 12 3 -3 0 -11 -7 -18z"/>
<path d="M14518 17333 c-10 -2 -18 -9 -18 -14 0 -5 -9 -9 -20 -9 -11 0 -20 -7
-20 -15 0 -8 7 -15 17 -15 15 0 15 -1 0 -18 -10 -10 -17 -26 -17 -36 0 -13 7
-17 33 -14 17 2 31 8 30 14 -1 6 12 11 30 11 17 0 33 5 35 11 2 7 15 12 29 12
25 0 25 1 9 19 -17 18 -17 19 1 24 10 3 5 5 -13 6 -17 0 -37 8 -44 16 -13 15
-21 16 -52 8z"/>
<path d="M16235 17290 c3 -5 10 -10 16 -10 5 0 9 5 9 10 0 6 -7 10 -16 10 -8
0 -12 -4 -9 -10z"/>
<path d="M14677 17273 c-35 -6 -25 -23 14 -23 19 0 29 -5 29 -15 0 -8 7 -15
15 -15 8 0 15 7 15 15 0 8 8 15 18 15 9 1 -1 7 -23 15 -22 8 -40 14 -40 13 0
0 -12 -3 -28 -5z"/>
<path d="M14405 17259 c-11 -16 -1 -19 13 -3 7 8 8 14 3 14 -5 0 -13 -5 -16
-11z"/>
<path d="M14789 17195 c-26 -13 -50 -21 -54 -17 -5 4 -5 2 -2 -4 6 -11 -19
-29 -35 -26 -3 1 -12 -6 -20 -15 -11 -15 -11 -16 7 -9 67 27 79 29 83 18 5
-15 48 -16 57 -2 3 6 15 10 25 10 26 0 53 39 38 57 -16 20 -48 16 -99 -12z"/>
<path d="M18990 17212 c0 -10 41 -24 49 -17 6 7 0 11 -26 19 -13 4 -23 3 -23
-2z"/>
<path d="M14591 17108 c-11 -11 -18 -25 -15 -30 5 -8 54 35 54 48 0 11 -21 2
-39 -18z"/>
<path d="M16220 17110 c0 -5 5 -10 11 -10 5 0 7 5 4 10 -3 6 -8 10 -11 10 -2
0 -4 -4 -4 -10z"/>
<path d="M16280 17042 c0 -19 36 -46 44 -33 3 4 -6 18 -19 29 -22 20 -25 20
-25 4z"/>
<path d="M14640 17035 c-8 -9 -8 -15 -2 -15 12 0 26 19 19 26 -2 2 -10 -2 -17
-11z"/>
<path d="M16357 17014 c6 -15 23 -19 23 -5 0 5 -7 11 -14 14 -10 4 -13 1 -9
-9z"/>
<path d="M14548 16996 c-21 -15 -24 -38 -5 -30 14 5 41 44 30 44 -5 0 -16 -7
-25 -14z"/>
<path d="M16390 16992 c0 -12 19 -26 26 -19 2 2 -2 10 -11 17 -9 8 -15 8 -15
2z"/>
<path d="M18186 16968 c-17 -24 -11 -41 30 -78 15 -14 24 -19 20 -12 -4 6 -4
12 1 12 4 0 9 17 10 37 3 60 -31 84 -61 41z"/>
<path d="M14531 16929 c-17 -17 -31 -35 -31 -41 0 -5 13 4 29 21 16 17 34 31
40 31 6 0 11 5 11 10 0 18 -18 10 -49 -21z"/>
<path d="M14327 16752 c-38 -41 -62 -142 -34 -142 16 0 35 32 57 96 21 66 12
85 -23 46z"/>
<path d="M14050 15863 c0 -12 5 -25 10 -28 13 -8 13 15 0 35 -8 12 -10 11 -10
-7z"/>
<path d="M17075 15763 c-19 -18 -19 -57 -1 -72 16 -13 118 -23 110 -10 -3 5 0
9 6 9 6 0 8 5 4 11 -4 7 -9 8 -13 1 -3 -5 -17 7 -30 28 -27 43 -54 55 -76 33z"/>
<path d="M14080 15701 c0 -5 5 -13 10 -16 6 -3 10 -2 10 4 0 5 -4 13 -10 16
-5 3 -10 2 -10 -4z"/>
<path d="M14151 15654 c0 -11 3 -14 6 -6 3 7 2 16 -1 19 -3 4 -6 -2 -5 -13z"/>
<path d="M14251 15614 c0 -11 3 -14 6 -6 3 7 2 16 -1 19 -3 4 -6 -2 -5 -13z"/>
<path d="M14210 15553 c0 -5 5 -15 10 -23 8 -12 10 -11 10 8 0 12 -4 22 -10
22 -5 0 -10 -3 -10 -7z"/>
<path d="M14291 15530 c11 -31 29 -41 29 -16 0 25 -12 46 -26 46 -10 0 -11 -6
-3 -30z"/>
<path d="M16730 15219 c0 -5 5 -7 10 -4 6 3 10 8 10 11 0 2 -4 4 -10 4 -5 0
-10 -5 -10 -11z"/>
<path d="M14540 15145 c7 -8 17 -15 22 -15 6 0 5 7 -2 15 -7 8 -17 15 -22 15
-6 0 -5 -7 2 -15z"/>
<path d="M16623 15087 c-43 -30 -42 -42 2 -16 19 12 35 25 35 30 0 11 2 12
-37 -14z"/>
<path d="M13390 15029 c-52 -4 -139 -19 -193 -34 -54 -14 -134 -28 -177 -30
-43 -2 -88 -8 -99 -14 -11 -6 -33 -11 -49 -11 -17 0 -32 -6 -35 -14 -3 -8 -19
-17 -36 -21 -43 -9 -69 -21 -204 -94 -54 -29 -84 -40 -99 -35 -16 5 -20 3 -15
-9 3 -9 -8 -27 -31 -48 -90 -80 -207 -193 -208 -201 -3 -19 -6 -24 -25 -47
-17 -21 -22 -23 -31 -10 -8 12 -9 12 -5 -2 3 -8 -8 -35 -24 -59 -16 -24 -29
-47 -29 -52 0 -14 -40 -100 -60 -128 -40 -57 -60 -103 -60 -138 -1 -20 -7 -55
-15 -77 -18 -47 -48 -252 -46 -310 1 -22 4 -57 7 -78 5 -31 3 -36 -10 -31 -13
5 -16 -2 -16 -41 0 -55 25 -116 45 -109 10 4 17 -8 25 -38 31 -121 129 -328
199 -423 21 -28 46 -66 56 -85 21 -42 112 -132 201 -200 35 -27 80 -64 98 -82
57 -55 334 -180 475 -214 111 -27 323 -30 487 -5 162 24 196 36 379 128 50 25
95 50 102 55 9 7 14 2 19 -19 4 -15 13 -34 21 -41 7 -7 13 -20 13 -29 0 -12 3
-13 14 -4 11 10 15 8 19 -6 4 -17 5 -17 6 0 1 20 12 22 29 5 10 -10 15 -10 22
1 10 16 103 17 108 1 7 -19 20 -10 30 19 9 24 14 28 37 23 l28 -5 -33 32 c-20
18 -27 31 -19 32 8 0 4 4 -9 9 -12 5 -25 16 -28 25 -4 8 -11 15 -16 15 -12 0
-48 39 -48 51 0 5 12 15 28 23 41 22 145 128 187 192 41 61 92 158 114 216 8
20 19 34 26 32 10 -4 59 129 79 211 2 11 2 -9 0 -45 -3 -36 -10 -74 -15 -85
-5 -11 -18 -47 -28 -80 -11 -33 -20 -53 -21 -45 -1 16 -69 -117 -69 -135 0 -5
9 9 20 32 13 25 26 40 34 37 22 -9 84 132 121 272 104 401 6 895 -246 1239
-22 30 -170 176 -210 208 -100 78 -150 112 -200 134 -30 13 -64 28 -75 33 -64
30 -180 46 -202 29 -8 -8 -26 -12 -39 -11 -25 4 -48 -26 -35 -47 11 -17 201
-111 201 -99 0 5 -7 11 -16 15 -24 9 -68 52 -61 59 3 3 36 -5 74 -19 37 -14
83 -30 101 -36 36 -11 92 -48 91 -59 -3 -19 2 -32 12 -32 6 0 8 7 5 16 -3 9
15 -4 41 -29 27 -25 62 -56 78 -68 161 -123 290 -321 379 -582 15 -43 25 -84
23 -90 -2 -7 -10 6 -17 28 -18 55 -111 231 -142 270 -52 65 -79 107 -81 126
-2 29 -92 123 -111 116 -7 -3 -26 7 -42 22 -78 71 -289 221 -312 221 -5 0 -36
13 -68 28 -33 16 -88 39 -124 51 -36 13 -72 26 -80 29 -43 15 -188 51 -209 52
-13 0 -22 3 -19 6 6 5 62 15 260 45 43 7 75 16 72 21 -3 4 5 8 17 8 17 0 19 3
10 14 -20 24 -204 37 -351 25z m-370 -73 c0 -2 -9 -6 -20 -9 -11 -3 -18 -1
-14 4 5 9 34 13 34 5z m415 -66 c17 -5 64 -19 105 -31 102 -28 149 -46 190
-73 19 -13 46 -27 60 -31 32 -10 198 -94 213 -109 7 -6 30 -23 52 -38 195
-133 393 -392 469 -613 10 -27 22 -59 28 -69 6 -11 12 -58 14 -105 1 -47 1
-75 -2 -61 -7 41 -34 143 -46 175 -23 63 -80 187 -100 220 -99 157 -97 154
-213 270 -94 94 -117 114 -175 155 -19 13 -37 27 -40 30 -14 18 -250 140 -270
140 -8 0 -28 7 -43 15 -80 42 -372 104 -500 106 l-62 1 45 9 c25 4 68 13 95
18 53 10 130 6 180 -9z m1162 -962 c-3 -8 -6 -5 -6 6 -1 11 2 17 5 13 3 -3 4
-12 1 -19z m-46 -881 c-10 -9 -11 -8 -5 6 3 10 9 15 12 12 3 -3 0 -11 -7 -18z"/>
<path d="M12238 15023 c-10 -2 -18 -9 -18 -14 0 -5 -9 -9 -20 -9 -11 0 -20 -7
-20 -15 0 -8 7 -15 17 -15 15 0 15 -1 0 -18 -10 -10 -17 -26 -17 -36 0 -13 7
-17 33 -14 17 2 31 8 30 14 -1 6 12 11 30 11 17 0 33 5 35 11 2 7 15 12 29 12
25 0 25 1 9 19 -17 18 -17 19 1 24 10 3 5 5 -13 6 -17 0 -37 8 -44 16 -13 15
-21 16 -52 8z"/>
<path d="M13955 14980 c3 -5 10 -10 16 -10 5 0 9 5 9 10 0 6 -7 10 -16 10 -8
0 -12 -4 -9 -10z"/>
<path d="M12397 14963 c-35 -6 -25 -23 14 -23 19 0 29 -5 29 -15 0 -8 7 -15
15 -15 8 0 15 7 15 15 0 8 8 15 18 15 9 1 -1 7 -23 15 -22 8 -40 14 -40 13 0
0 -12 -3 -28 -5z"/>
<path d="M12125 14949 c-11 -16 -1 -19 13 -3 7 8 8 14 3 14 -5 0 -13 -5 -16
-11z"/>
<path d="M12509 14885 c-26 -13 -50 -21 -54 -17 -5 4 -5 2 -2 -4 6 -11 -19
-29 -35 -26 -3 1 -12 -6 -20 -15 -11 -15 -11 -16 7 -9 67 27 79 29 83 18 5
-15 48 -16 57 -2 3 6 15 10 25 10 26 0 53 39 38 57 -16 20 -48 16 -99 -12z"/>
<path d="M16600 14902 c0 -10 41 -24 49 -17 6 7 0 11 -26 19 -13 4 -23 3 -23
-2z"/>
<path d="M12311 14798 c-11 -11 -18 -25 -15 -30 5 -8 54 35 54 48 0 11 -21 2
-39 -18z"/>
<path d="M13940 14800 c0 -5 5 -10 11 -10 5 0 7 5 4 10 -3 6 -8 10 -11 10 -2
0 -4 -4 -4 -10z"/>
<path d="M14000 14732 c0 -19 36 -46 44 -33 3 4 -6 18 -19 29 -22 20 -25 20
-25 4z"/>
<path d="M12360 14725 c-8 -9 -8 -15 -2 -15 12 0 26 19 19 26 -2 2 -10 -2 -17
-11z"/>
<path d="M14077 14704 c6 -15 23 -19 23 -5 0 5 -7 11 -14 14 -10 4 -13 1 -9
-9z"/>
<path d="M12268 14686 c-21 -15 -24 -38 -5 -30 14 5 41 44 30 44 -5 0 -16 -7
-25 -14z"/>
<path d="M14110 14682 c0 -12 19 -26 26 -19 2 2 -2 10 -11 17 -9 8 -15 8 -15
2z"/>
<path d="M15796 14658 c-17 -24 -11 -41 30 -78 15 -14 24 -19 20 -12 -4 6 -4
12 1 12 4 0 9 17 10 37 3 60 -31 84 -61 41z"/>
<path d="M12251 14619 c-17 -17 -31 -35 -31 -41 0 -5 13 4 29 21 16 17 34 31
40 31 6 0 11 5 11 10 0 18 -18 10 -49 -21z"/>
<path d="M12047 14442 c-38 -41 -62 -142 -34 -142 16 0 35 32 57 96 21 66 12
85 -23 46z"/>
<path d="M11770 13553 c0 -12 5 -25 10 -28 13 -8 13 15 0 35 -8 12 -10 11 -10
-7z"/>
<path d="M14795 13453 c-19 -18 -19 -57 -1 -72 16 -13 118 -23 110 -10 -3 5 0
9 6 9 6 0 8 5 4 11 -4 7 -9 8 -13 1 -3 -5 -17 7 -30 28 -27 43 -54 55 -76 33z"/>
<path d="M11800 13391 c0 -5 5 -13 10 -16 6 -3 10 -2 10 4 0 5 -4 13 -10 16
-5 3 -10 2 -10 -4z"/>
<path d="M11871 13344 c0 -11 3 -14 6 -6 3 7 2 16 -1 19 -3 4 -6 -2 -5 -13z"/>
<path d="M11971 13304 c0 -11 3 -14 6 -6 3 7 2 16 -1 19 -3 4 -6 -2 -5 -13z"/>
<path d="M11930 13243 c0 -5 5 -15 10 -23 8 -12 10 -11 10 8 0 12 -4 22 -10
22 -5 0 -10 -3 -10 -7z"/>
<path d="M12011 13220 c11 -31 29 -41 29 -16 0 25 -12 46 -26 46 -10 0 -11 -6
-3 -30z"/>
<path d="M14450 12909 c0 -5 5 -7 10 -4 6 3 10 8 10 11 0 2 -4 4 -10 4 -5 0
-10 -5 -10 -11z"/>
<path d="M12260 12835 c7 -8 17 -15 22 -15 6 0 5 7 -2 15 -7 8 -17 15 -22 15
-6 0 -5 -7 2 -15z"/>
<path d="M14343 12777 c-43 -30 -42 -42 2 -16 19 12 35 25 35 30 0 11 2 12
-37 -14z"/>
<path d="M11080 12749 c-52 -4 -139 -19 -193 -34 -54 -14 -134 -28 -177 -30
-43 -2 -88 -8 -99 -14 -11 -6 -33 -11 -49 -11 -17 0 -32 -6 -35 -14 -3 -8 -19
-17 -36 -21 -43 -9 -69 -21 -204 -94 -54 -29 -84 -40 -99 -35 -16 5 -20 3 -15
-9 3 -9 -8 -27 -31 -48 -90 -80 -207 -193 -208 -201 -3 -19 -6 -24 -25 -47
-17 -21 -22 -23 -31 -10 -8 12 -9 12 -5 -2 3 -8 -8 -35 -24 -59 -16 -24 -29
-47 -29 -52 0 -14 -40 -100 -60 -128 -40 -57 -60 -103 -60 -138 -1 -20 -7 -55
-15 -77 -18 -47 -48 -252 -46 -310 1 -22 4 -57 7 -78 5 -31 3 -36 -10 -31 -13
5 -16 -2 -16 -41 0 -55 25 -116 45 -109 10 4 17 -8 25 -38 31 -121 129 -328
199 -423 21 -28 46 -66 56 -85 21 -42 112 -132 201 -200 35 -27 80 -64 98 -82
57 -55 334 -180 475 -214 111 -27 323 -30 487 -5 162 24 196 36 379 128 50 25
95 50 102 55 9 7 14 2 19 -19 4 -15 13 -34 21 -41 7 -7 13 -20 13 -29 0 -12 3
-13 14 -4 11 10 15 8 19 -6 4 -17 5 -17 6 0 1 20 12 22 29 5 10 -10 15 -10 22
1 10 16 103 17 108 1 7 -19 20 -10 30 19 9 24 14 28 37 23 l28 -5 -33 32 c-20
18 -27 31 -19 32 8 0 4 4 -9 9 -12 5 -25 16 -28 25 -4 8 -11 15 -16 15 -12 0
-48 39 -48 51 0 5 12 15 28 23 41 22 145 128 187 192 41 61 92 158 114 216 8
20 19 34 26 32 10 -4 59 129 79 211 2 11 2 -9 0 -45 -3 -36 -10 -74 -15 -85
-5 -11 -18 -47 -28 -80 -11 -33 -20 -53 -21 -45 -1 16 -69 -117 -69 -135 0 -5
9 9 20 32 13 25 26 40 34 37 22 -9 84 132 121 272 104 401 6 895 -246 1239
-22 30 -170 176 -210 208 -100 78 -150 112 -200 134 -30 13 -64 28 -75 33 -64
30 -180 46 -202 29 -8 -8 -26 -12 -39 -11 -25 4 -48 -26 -35 -47 11 -17 201
-111 201 -99 0 5 -7 11 -16 15 -24 9 -68 52 -61 59 3 3 36 -5 74 -19 37 -14
83 -30 101 -36 36 -11 92 -48 91 -59 -3 -19 2 -32 12 -32 6 0 8 7 5 16 -3 9
15 -4 41 -29 27 -25 62 -56 78 -68 161 -123 290 -321 379 -582 15 -43 25 -84
23 -90 -2 -7 -10 6 -17 28 -18 55 -111 231 -142 270 -52 65 -79 107 -81 126
-2 29 -92 123 -111 116 -7 -3 -26 7 -42 22 -78 71 -289 221 -312 221 -5 0 -36
13 -68 28 -33 16 -88 39 -124 51 -36 13 -72 26 -80 29 -43 15 -188 51 -209 52
-13 0 -22 3 -19 6 6 5 62 15 260 45 43 7 75 16 72 21 -3 4 5 8 17 8 17 0 19 3
10 14 -20 24 -204 37 -351 25z m-370 -73 c0 -2 -9 -6 -20 -9 -11 -3 -18 -1
-14 4 5 9 34 13 34 5z m415 -66 c17 -5 64 -19 105 -31 102 -28 149 -46 190
-73 19 -13 46 -27 60 -31 32 -10 198 -94 213 -109 7 -6 30 -23 52 -38 195
-133 393 -392 469 -613 10 -27 22 -59 28 -69 6 -11 12 -58 14 -105 1 -47 1
-75 -2 -61 -7 41 -34 143 -46 175 -23 63 -80 187 -100 220 -99 157 -97 154
-213 270 -94 94 -117 114 -175 155 -19 13 -37 27 -40 30 -14 18 -250 140 -270
140 -8 0 -28 7 -43 15 -80 42 -372 104 -500 106 l-62 1 45 9 c25 4 68 13 95
18 53 10 130 6 180 -9z m1162 -962 c-3 -8 -6 -5 -6 6 -1 11 2 17 5 13 3 -3 4
-12 1 -19z m-46 -881 c-10 -9 -11 -8 -5 6 3 10 9 15 12 12 3 -3 0 -11 -7 -18z"/>
<path d="M9928 12743 c-10 -2 -18 -9 -18 -14 0 -5 -9 -9 -20 -9 -11 0 -20 -7
-20 -15 0 -8 7 -15 17 -15 15 0 15 -1 0 -18 -10 -10 -17 -26 -17 -36 0 -13 7
-17 33 -14 17 2 31 8 30 14 -1 6 12 11 30 11 17 0 33 5 35 11 2 7 15 12 29 12
25 0 25 1 9 19 -17 18 -17 19 1 24 10 3 5 5 -13 6 -17 0 -37 8 -44 16 -13 15
-21 16 -52 8z"/>
<path d="M11645 12700 c3 -5 10 -10 16 -10 5 0 9 5 9 10 0 6 -7 10 -16 10 -8
0 -12 -4 -9 -10z"/>
<path d="M10087 12683 c-35 -6 -25 -23 14 -23 19 0 29 -5 29 -15 0 -8 7 -15
15 -15 8 0 15 7 15 15 0 8 8 15 18 15 9 1 -1 7 -23 15 -22 8 -40 14 -40 13 0
0 -12 -3 -28 -5z"/>
<path d="M9815 12669 c-11 -16 -1 -19 13 -3 7 8 8 14 3 14 -5 0 -13 -5 -16
-11z"/>
<path d="M10199 12605 c-26 -13 -50 -21 -54 -17 -5 4 -5 2 -2 -4 6 -11 -19
-29 -35 -26 -3 1 -12 -6 -20 -15 -11 -15 -11 -16 7 -9 67 27 79 29 83 18 5
-15 48 -16 57 -2 3 6 15 10 25 10 26 0 53 39 38 57 -16 20 -48 16 -99 -12z"/>
<path d="M14320 12592 c0 -10 41 -24 49 -17 6 7 0 11 -26 19 -13 4 -23 3 -23
-2z"/>
<path d="M10001 12518 c-11 -11 -18 -25 -15 -30 5 -8 54 35 54 48 0 11 -21 2
-39 -18z"/>
<path d="M11630 12520 c0 -5 5 -10 11 -10 5 0 7 5 4 10 -3 6 -8 10 -11 10 -2
0 -4 -4 -4 -10z"/>
<path d="M11690 12452 c0 -19 36 -46 44 -33 3 4 -6 18 -19 29 -22 20 -25 20
-25 4z"/>
<path d="M10050 12445 c-8 -9 -8 -15 -2 -15 12 0 26 19 19 26 -2 2 -10 -2 -17
-11z"/>
<path d="M11767 12424 c6 -15 23 -19 23 -5 0 5 -7 11 -14 14 -10 4 -13 1 -9
-9z"/>
<path d="M9958 12406 c-21 -15 -24 -38 -5 -30 14 5 41 44 30 44 -5 0 -16 -7
-25 -14z"/>
<path d="M11800 12402 c0 -12 19 -26 26 -19 2 2 -2 10 -11 17 -9 8 -15 8 -15
2z"/>
<path d="M9941 12339 c-17 -17 -31 -35 -31 -41 0 -5 13 4 29 21 16 17 34 31
40 31 6 0 11 5 11 10 0 18 -18 10 -49 -21z"/>
<path d="M13516 12348 c-17 -24 -11 -41 30 -78 15 -14 24 -19 20 -12 -4 6 -4
12 1 12 4 0 9 17 10 37 3 60 -31 84 -61 41z"/>
<path d="M9737 12162 c-38 -41 -62 -142 -34 -142 16 0 35 32 57 96 21 66 12
85 -23 46z"/>
<path d="M9460 11273 c0 -12 5 -25 10 -28 13 -8 13 15 0 35 -8 12 -10 11 -10
-7z"/>
<path d="M12485 11173 c-19 -18 -19 -57 -1 -72 16 -13 118 -23 110 -10 -3 5 0
9 6 9 6 0 8 5 4 11 -4 7 -9 8 -13 1 -3 -5 -17 7 -30 28 -27 43 -54 55 -76 33z"/>
<path d="M9490 11111 c0 -5 5 -13 10 -16 6 -3 10 -2 10 4 0 5 -4 13 -10 16 -5
3 -10 2 -10 -4z"/>
<path d="M9561 11064 c0 -11 3 -14 6 -6 3 7 2 16 -1 19 -3 4 -6 -2 -5 -13z"/>
<path d="M9661 11024 c0 -11 3 -14 6 -6 3 7 2 16 -1 19 -3 4 -6 -2 -5 -13z"/>
<path d="M9620 10963 c0 -5 5 -15 10 -23 8 -12 10 -11 10 8 0 12 -4 22 -10 22
-5 0 -10 -3 -10 -7z"/>
<path d="M9701 10940 c11 -31 29 -41 29 -16 0 25 -12 46 -26 46 -10 0 -11 -6
-3 -30z"/>
<path d="M12140 10629 c0 -5 5 -7 10 -4 6 3 10 8 10 11 0 2 -4 4 -10 4 -5 0
-10 -5 -10 -11z"/>
<path d="M8880 10579 c-52 -4 -139 -19 -193 -34 -54 -14 -134 -28 -177 -30
-43 -2 -88 -8 -99 -14 -11 -6 -33 -11 -49 -11 -17 0 -32 -6 -35 -14 -3 -8 -19
-17 -36 -21 -43 -9 -69 -21 -204 -94 -54 -29 -84 -40 -99 -35 -16 5 -20 3 -15
-9 3 -9 -8 -27 -31 -48 -90 -80 -207 -193 -208 -201 -3 -19 -6 -24 -25 -47
-17 -21 -22 -23 -31 -10 -8 12 -9 12 -5 -2 3 -8 -8 -35 -24 -59 -16 -24 -29
-47 -29 -52 0 -14 -40 -100 -60 -128 -40 -57 -60 -103 -60 -138 -1 -20 -7 -55
-15 -77 -18 -47 -48 -252 -46 -310 1 -22 4 -57 7 -78 5 -31 3 -36 -10 -31 -13
5 -16 -2 -16 -41 0 -55 25 -116 45 -109 10 4 17 -8 25 -38 31 -121 129 -328
199 -423 21 -28 46 -66 56 -85 21 -42 112 -132 201 -200 35 -27 80 -64 98 -82
57 -55 334 -180 475 -214 111 -27 323 -30 487 -5 162 24 196 36 379 128 50 25
95 50 102 55 9 7 14 2 19 -19 4 -15 13 -34 21 -41 7 -7 13 -20 13 -29 0 -12 3
-13 14 -4 11 10 15 8 19 -6 4 -17 5 -17 6 0 1 20 12 22 29 5 10 -10 15 -10 22
1 10 16 103 17 108 1 7 -19 20 -10 30 19 9 24 14 28 37 23 l28 -5 -33 32 c-20
18 -27 31 -19 32 8 0 4 4 -9 9 -12 5 -25 16 -28 25 -4 8 -11 15 -16 15 -12 0
-48 39 -48 51 0 5 12 15 28 23 41 22 145 128 187 192 41 61 92 158 114 216 8
20 19 34 26 32 10 -4 59 129 79 211 2 11 2 -9 0 -45 -3 -36 -10 -74 -15 -85
-5 -11 -18 -47 -28 -80 -11 -33 -20 -53 -21 -45 -1 16 -69 -117 -69 -135 0 -5
9 9 20 32 13 25 26 40 34 37 22 -9 84 132 121 272 104 401 6 895 -246 1239
-22 30 -170 176 -210 208 -100 78 -150 112 -200 134 -30 13 -64 28 -75 33 -64
30 -180 46 -202 29 -8 -8 -26 -12 -39 -11 -25 4 -48 -26 -35 -47 11 -17 201
-111 201 -99 0 5 -7 11 -16 15 -24 9 -68 52 -61 59 3 3 36 -5 74 -19 37 -14
83 -30 101 -36 36 -11 92 -48 91 -59 -3 -19 2 -32 12 -32 6 0 8 7 5 16 -3 9
15 -4 41 -29 27 -25 62 -56 78 -68 161 -123 290 -321 379 -582 15 -43 25 -84
23 -90 -2 -7 -10 6 -17 28 -18 55 -111 231 -142 270 -52 65 -79 107 -81 126
-2 29 -92 123 -111 116 -7 -3 -26 7 -42 22 -78 71 -289 221 -312 221 -5 0 -36
13 -68 28 -33 16 -88 39 -124 51 -36 13 -72 26 -80 29 -43 15 -188 51 -209 52
-13 0 -22 3 -19 6 6 5 62 15 260 45 43 7 75 16 72 21 -3 4 5 8 17 8 17 0 19 3
10 14 -20 24 -204 37 -351 25z m-370 -73 c0 -2 -9 -6 -20 -9 -11 -3 -18 -1
-14 4 5 9 34 13 34 5z m415 -66 c17 -5 64 -19 105 -31 102 -28 149 -46 190
-73 19 -13 46 -27 60 -31 32 -10 198 -94 213 -109 7 -6 30 -23 52 -38 195
-133 393 -392 469 -613 10 -27 22 -59 28 -69 6 -11 12 -58 14 -105 1 -47 1
-75 -2 -61 -7 41 -34 143 -46 175 -23 63 -80 187 -100 220 -99 157 -97 154
-213 270 -94 94 -117 114 -175 155 -19 13 -37 27 -40 30 -14 18 -250 140 -270
140 -8 0 -28 7 -43 15 -80 42 -372 104 -500 106 l-62 1 45 9 c25 4 68 13 95
18 53 10 130 6 180 -9z m1162 -962 c-3 -8 -6 -5 -6 6 -1 11 2 17 5 13 3 -3 4
-12 1 -19z m-46 -881 c-10 -9 -11 -8 -5 6 3 10 9 15 12 12 3 -3 0 -11 -7 -18z"/>
<path d="M7728 10573 c-10 -2 -18 -9 -18 -14 0 -5 -9 -9 -20 -9 -11 0 -20 -7
-20 -15 0 -8 7 -15 17 -15 15 0 15 -1 0 -18 -10 -10 -17 -26 -17 -36 0 -13 7
-17 33 -14 17 2 31 8 30 14 -1 6 12 11 30 11 17 0 33 5 35 11 2 7 15 12 29 12
25 0 25 1 9 19 -17 18 -17 19 1 24 10 3 5 5 -13 6 -17 0 -37 8 -44 16 -13 15
-21 16 -52 8z"/>
<path d="M9950 10555 c7 -8 17 -15 22 -15 6 0 5 7 -2 15 -7 8 -17 15 -22 15
-6 0 -5 -7 2 -15z"/>
<path d="M9445 10530 c3 -5 10 -10 16 -10 5 0 9 5 9 10 0 6 -7 10 -16 10 -8 0
-12 -4 -9 -10z"/>
<path d="M7887 10513 c-35 -6 -25 -23 14 -23 19 0 29 -5 29 -15 0 -8 7 -15 15
-15 8 0 15 7 15 15 0 8 8 15 18 15 9 1 -1 7 -23 15 -22 8 -40 14 -40 13 0 0
-12 -3 -28 -5z"/>
<path d="M12033 10497 c-43 -30 -42 -42 2 -16 19 12 35 25 35 30 0 11 2 12
-37 -14z"/>
<path d="M7615 10499 c-11 -16 -1 -19 13 -3 7 8 8 14 3 14 -5 0 -13 -5 -16
-11z"/>
<path d="M7999 10435 c-26 -13 -50 -21 -54 -17 -5 4 -5 2 -2 -4 6 -11 -19 -29
-35 -26 -3 1 -12 -6 -20 -15 -11 -15 -11 -16 7 -9 67 27 79 29 83 18 5 -15 48
-16 57 -2 3 6 15 10 25 10 26 0 53 39 38 57 -16 20 -48 16 -99 -12z"/>
<path d="M7801 10348 c-11 -11 -18 -25 -15 -30 5 -8 54 35 54 48 0 11 -21 2
-39 -18z"/>
<path d="M9430 10350 c0 -5 5 -10 11 -10 5 0 7 5 4 10 -3 6 -8 10 -11 10 -2 0
-4 -4 -4 -10z"/>
<path d="M12010 10312 c0 -10 41 -24 49 -17 6 7 0 11 -26 19 -13 4 -23 3 -23
-2z"/>
<path d="M9490 10282 c0 -19 36 -46 44 -33 3 4 -6 18 -19 29 -22 20 -25 20
-25 4z"/>
<path d="M7850 10275 c-8 -9 -8 -15 -2 -15 12 0 26 19 19 26 -2 2 -10 -2 -17
-11z"/>
<path d="M9567 10254 c6 -15 23 -19 23 -5 0 5 -7 11 -14 14 -10 4 -13 1 -9 -9z"/>
<path d="M7758 10236 c-21 -15 -24 -38 -5 -30 14 5 41 44 30 44 -5 0 -16 -7
-25 -14z"/>
<path d="M9600 10232 c0 -12 19 -26 26 -19 2 2 -2 10 -11 17 -9 8 -15 8 -15 2z"/>
<path d="M7741 10169 c-17 -17 -31 -35 -31 -41 0 -5 13 4 29 21 16 17 34 31
40 31 6 0 11 5 11 10 0 18 -18 10 -49 -21z"/>
<path d="M11206 10068 c-17 -24 -11 -41 30 -78 15 -14 24 -19 20 -12 -4 6 -4
12 1 12 4 0 9 17 10 37 3 60 -31 84 -61 41z"/>
<path d="M7537 9992 c-38 -41 -62 -142 -34 -142 16 0 35 32 57 96 21 66 12 85
-23 46z"/>
<path d="M7260 9103 c0 -12 5 -25 10 -28 13 -8 13 15 0 35 -8 12 -10 11 -10
-7z"/>
<path d="M10285 9003 c-19 -18 -19 -57 -1 -72 16 -13 118 -23 110 -10 -3 5 0
9 6 9 6 0 8 5 4 11 -4 7 -9 8 -13 1 -3 -5 -17 7 -30 28 -27 43 -54 55 -76 33z"/>
<path d="M7290 8941 c0 -5 5 -13 10 -16 6 -3 10 -2 10 4 0 5 -4 13 -10 16 -5
3 -10 2 -10 -4z"/>
<path d="M7361 8894 c0 -11 3 -14 6 -6 3 7 2 16 -1 19 -3 4 -6 -2 -5 -13z"/>
<path d="M7461 8854 c0 -11 3 -14 6 -6 3 7 2 16 -1 19 -3 4 -6 -2 -5 -13z"/>
<path d="M7420 8793 c0 -5 5 -15 10 -23 8 -12 10 -11 10 8 0 12 -4 22 -10 22
-5 0 -10 -3 -10 -7z"/>
<path d="M7501 8770 c11 -31 29 -41 29 -16 0 25 -12 46 -26 46 -10 0 -11 -6
-3 -30z"/>
<path d="M9940 8459 c0 -5 5 -7 10 -4 6 3 10 8 10 11 0 2 -4 4 -10 4 -5 0 -10
-5 -10 -11z"/>
<path d="M7750 8385 c7 -8 17 -15 22 -15 6 0 5 7 -2 15 -7 8 -17 15 -22 15 -6
0 -5 -7 2 -15z"/>
<path d="M9833 8327 c-43 -30 -42 -42 2 -16 19 12 35 25 35 30 0 11 2 12 -37
-14z"/>
<path d="M6435 8300 c-100 -15 -215 -43 -215 -52 0 -5 -4 -7 -9 -4 -5 4 -11 3
-13 -2 -1 -4 -46 -30 -98 -57 -111 -56 -221 -124 -202 -125 7 0 11 -4 8 -9 -3
-4 7 -6 22 -3 33 6 34 7 -53 -58 -38 -29 -92 -74 -118 -99 -58 -54 -167 -189
-167 -205 0 -6 -11 -27 -24 -46 -23 -35 -68 -130 -61 -130 2 0 15 19 29 43 40
65 33 14 -9 -74 -19 -41 -37 -90 -40 -109 -6 -33 -5 -32 19 15 27 53 76 183
76 203 0 6 14 26 31 44 17 18 48 58 69 88 69 96 246 243 369 304 165 83 289
122 409 131 96 6 85 2 -43 -21 -74 -12 -95 -19 -80 -25 13 -6 7 -6 -17 -3 -24
4 -38 2 -38 -4 0 -6 -8 -10 -17 -10 -30 2 -73 -12 -73 -23 0 -7 7 -8 18 -4 9
3 31 8 47 11 21 2 16 -1 -14 -11 -25 -8 -49 -19 -54 -24 -5 -5 42 7 105 26
136 43 180 52 233 52 29 -1 16 -6 -50 -19 -180 -36 -275 -70 -387 -135 -33
-20 -62 -34 -65 -32 -2 3 31 25 74 51 86 51 81 64 -6 15 -169 -95 -314 -222
-403 -352 -50 -74 -45 -95 6 -25 58 78 149 178 162 178 7 0 19 11 28 25 9 14
23 25 32 25 9 0 12 5 8 12 -5 7 -2 9 7 6 17 -7 54 17 54 35 1 7 6 11 13 9 7
-1 49 18 95 43 94 51 171 79 270 100 87 19 143 19 72 0 l-50 -13 65 6 c102 11
237 5 338 -13 51 -10 91 -19 89 -21 -2 -2 -52 1 -110 8 -150 16 -303 0 -440
-46 -89 -29 -237 -100 -237 -112 0 -2 35 13 78 34 42 21 122 52 177 68 94 27
111 29 285 29 l185 0 127 -38 c71 -21 165 -53 210 -72 45 -19 83 -33 86 -31 3
4 -80 68 -123 95 -18 11 -16 12 14 7 52 -9 25 14 -66 57 -104 48 -256 88 -373
98 -86 7 -82 7 40 4 105 -3 156 -10 230 -29 52 -14 99 -26 104 -26 4 0 5 12 2
26 -7 25 -5 24 81 -22 48 -25 119 -67 157 -92 88 -58 241 -204 307 -293 28
-38 60 -74 71 -80 20 -11 81 -131 114 -226 10 -29 22 -53 27 -53 9 0 2 28 -18
75 -41 92 -74 179 -70 183 4 5 83 -146 103 -198 22 -58 52 -206 58 -288 9
-116 17 -102 11 18 -5 90 -37 257 -62 325 -30 82 -111 242 -145 285 -15 19
-38 53 -52 75 -44 70 -208 225 -308 290 -131 86 -291 157 -430 190 -93 22
-144 28 -265 31 -82 1 -177 -1 -210 -6z m-128 -216 c-3 -3 -12 -4 -19 -1 -8 3
-5 6 6 6 11 1 17 -2 13 -5z m220 -10 c-3 -3 -12 -4 -19 -1 -8 3 -5 6 6 6 11 1
17 -2 13 -5z m390 -70 c-3 -3 -12 -4 -19 -1 -8 3 -5 6 6 6 11 1 17 -2 13 -5z
m-938 -107 c-2 -1 -13 -9 -24 -17 -19 -14 -19 -14 -6 3 7 9 18 17 24 17 6 0 8
-1 6 -3z"/>
<path d="M9810 8142 c0 -10 41 -24 49 -17 6 7 0 11 -26 19 -13 4 -23 3 -23 -2z"/>
<path d="M6140 8049 c0 -5 5 -7 10 -4 6 3 10 8 10 11 0 2 -4 4 -10 4 -5 0 -10
-5 -10 -11z"/>
<path d="M6295 8021 c-98 -35 -221 -99 -298 -156 -82 -60 -100 -86 -26 -37
131 86 165 107 231 140 40 19 98 43 128 53 30 9 46 17 35 17 -11 0 -43 -7 -70
-17z"/>
<path d="M6050 8005 c-11 -13 -10 -14 4 -9 9 3 16 10 16 15 0 13 -6 11 -20 -6z"/>
<path d="M9006 7898 c-17 -24 -11 -41 30 -78 15 -14 24 -19 20 -12 -4 6 -4 12
1 12 4 0 9 17 10 37 3 60 -31 84 -61 41z"/>
<path d="M5654 7878 l-19 -23 23 19 c21 18 27 26 19 26 -2 0 -12 -10 -23 -22z"/>
<path d="M5636 7543 c-6 -14 -5 -15 5 -6 7 7 10 15 7 18 -3 3 -9 -2 -12 -12z"/>
<path d="M5363 7518 c-41 -55 -85 -183 -113 -328 -74 -389 55 -835 332 -1150
55 -62 181 -174 254 -225 81 -57 303 -163 388 -185 329 -87 669 -60 939 76
215 107 370 244 520 456 42 60 133 233 165 313 15 37 31 135 23 135 -3 0 -26
-41 -50 -91 -24 -49 -45 -88 -48 -85 -5 5 34 111 48 131 7 9 39 138 39 153 0
4 -5 0 -11 -8 -7 -11 -8 30 -4 135 5 160 -1 167 -31 30 -25 -116 -54 -206 -64
-200 -5 3 -17 -18 -28 -47 -29 -76 -106 -222 -144 -275 -46 -63 -168 -203
-177 -203 -4 0 -30 -20 -59 -44 -64 -55 -211 -140 -286 -166 -31 -10 -78 -30
-105 -44 -54 -27 -205 -63 -315 -76 -128 -15 -366 27 -491 85 -29 14 -63 25
-77 25 -13 0 -46 14 -74 31 -27 18 -65 38 -84 47 l-35 14 22 -23 c12 -13 63
-49 113 -78 50 -30 94 -59 96 -63 12 -19 -56 8 -141 55 -103 58 -158 99 -235
177 -54 54 -56 54 -17 -5 11 -16 18 -28 14 -25 -3 3 -23 19 -44 35 -52 42
-152 154 -234 265 -52 69 -135 298 -160 440 -17 94 -17 329 0 435 12 72 59
233 83 278 10 20 5 23 -9 5z"/>
<path d="M5486 7225 c-4 -11 -9 -49 -11 -85 l-5 -65 15 75 c15 75 15 111 1 75z"/>
<path d="M5447 7211 c-4 -17 -3 -21 5 -13 5 5 8 16 6 23 -3 8 -7 3 -11 -10z"/>
<path d="M5430 7160 c0 -5 5 -10 10 -10 6 0 10 5 10 10 0 6 -4 10 -10 10 -5 0
-10 -4 -10 -10z"/>
<path d="M5462 6660 c0 -14 2 -19 5 -12 2 6 2 18 0 25 -3 6 -5 1 -5 -13z"/>
<path d="M5521 6480 c14 -31 19 -36 19 -24 0 6 -7 19 -16 30 -14 18 -14 18 -3
-6z"/>
<path d="M5710 6252 c6 -13 14 -21 18 -18 3 4 -2 14 -12 24 -18 16 -18 16 -6
-6z"/>
<path d="M5755 6200 c10 -11 20 -20 23 -20 3 0 -3 9 -13 20 -10 11 -20 20 -23
20 -3 0 3 -9 13 -20z"/>
<path d="M4150 5989 c-52 -4 -139 -19 -193 -34 -54 -14 -134 -28 -177 -30 -43
-2 -88 -8 -99 -14 -11 -6 -33 -11 -49 -11 -17 0 -32 -6 -35 -14 -3 -8 -19 -17
-36 -21 -43 -9 -69 -21 -204 -94 -54 -29 -84 -40 -99 -35 -16 5 -20 3 -15 -9
3 -9 -8 -27 -31 -48 -90 -80 -207 -193 -208 -201 -3 -19 -6 -24 -25 -47 -17
-21 -22 -23 -31 -10 -8 12 -9 12 -5 -2 3 -8 -8 -35 -24 -59 -16 -24 -29 -47
-29 -52 0 -14 -40 -100 -60 -128 -40 -57 -60 -103 -60 -138 -1 -20 -7 -55 -15
-77 -18 -47 -48 -252 -46 -310 1 -22 4 -57 7 -78 5 -31 3 -36 -10 -31 -13 5
-16 -2 -16 -41 0 -55 25 -116 45 -109 10 4 17 -8 25 -38 31 -121 129 -328 199
-423 21 -28 46 -66 56 -85 21 -42 112 -132 201 -200 35 -27 80 -64 98 -82 57
-55 334 -180 475 -214 111 -27 323 -30 487 -5 162 24 196 36 379 128 50 25 95
50 102 55 9 7 14 2 19 -19 4 -15 13 -34 21 -41 7 -7 13 -20 13 -29 0 -12 3
-13 14 -4 11 10 15 8 19 -6 4 -17 5 -17 6 0 1 20 12 22 29 5 10 -10 15 -10 22
1 10 16 103 17 108 1 7 -19 20 -10 30 19 9 24 14 28 37 23 l28 -5 -33 32 c-20
18 -27 31 -19 32 8 0 4 4 -9 9 -12 5 -25 16 -28 25 -4 8 -11 15 -16 15 -12 0
-48 39 -48 51 0 5 12 15 28 23 41 22 145 128 187 192 41 61 92 158 114 216 8
20 19 34 26 32 10 -4 59 129 79 211 2 11 2 -9 0 -45 -3 -36 -10 -74 -15 -85
-5 -11 -18 -47 -28 -80 -11 -33 -20 -53 -21 -45 -1 16 -69 -117 -69 -135 0 -5
9 9 20 32 13 25 26 40 34 37 22 -9 84 132 121 272 104 401 6 895 -246 1239
-22 30 -170 176 -210 208 -100 78 -150 112 -200 134 -30 13 -64 28 -75 33 -64
30 -180 46 -202 29 -8 -8 -26 -12 -39 -11 -25 4 -48 -26 -35 -47 11 -17 201
-111 201 -99 0 5 -7 11 -16 15 -24 9 -68 52 -61 59 3 3 36 -5 74 -19 37 -14
83 -30 101 -36 36 -11 92 -48 91 -59 -3 -19 2 -32 12 -32 6 0 8 7 5 16 -3 9
15 -4 41 -29 27 -25 62 -56 78 -68 161 -123 290 -321 379 -582 15 -43 25 -84
23 -90 -2 -7 -10 6 -17 28 -18 55 -111 231 -142 270 -52 65 -79 107 -81 126
-2 29 -92 123 -111 116 -7 -3 -26 7 -42 22 -78 71 -289 221 -312 221 -5 0 -36
13 -68 28 -33 16 -88 39 -124 51 -36 13 -72 26 -80 29 -43 15 -188 51 -209 52
-13 0 -22 3 -19 6 6 5 62 15 260 45 43 7 75 16 72 21 -3 4 5 8 17 8 17 0 19 3
10 14 -20 24 -204 37 -351 25z m-370 -73 c0 -2 -9 -6 -20 -9 -11 -3 -18 -1
-14 4 5 9 34 13 34 5z m415 -66 c17 -5 64 -19 105 -31 102 -28 149 -46 190
-73 19 -13 46 -27 60 -31 32 -10 198 -94 213 -109 7 -6 30 -23 52 -38 195
-133 393 -392 469 -613 10 -27 22 -59 28 -69 6 -11 12 -58 14 -105 1 -47 1
-75 -2 -61 -7 41 -34 143 -46 175 -23 63 -80 187 -100 220 -99 157 -97 154
-213 270 -94 94 -117 114 -175 155 -19 13 -37 27 -40 30 -14 18 -250 140 -270
140 -8 0 -28 7 -43 15 -80 42 -372 104 -500 106 l-62 1 45 9 c25 4 68 13 95
18 53 10 130 6 180 -9z m1162 -962 c-3 -8 -6 -5 -6 6 -1 11 2 17 5 13 3 -3 4
-12 1 -19z m-46 -881 c-10 -9 -11 -8 -5 6 3 10 9 15 12 12 3 -3 0 -11 -7 -18z"/>
<path d="M2998 5983 c-10 -2 -18 -9 -18 -14 0 -5 -9 -9 -20 -9 -11 0 -20 -7
-20 -15 0 -8 7 -15 17 -15 15 0 15 -1 0 -18 -10 -10 -17 -26 -17 -36 0 -13 7
-17 33 -14 17 2 31 8 30 14 -1 6 12 11 30 11 17 0 33 5 35 11 2 7 15 12 29 12
25 0 25 1 9 19 -17 18 -17 19 1 24 10 3 5 5 -13 6 -17 0 -37 8 -44 16 -13 15
-21 16 -52 8z"/>
<path d="M4715 5940 c3 -5 10 -10 16 -10 5 0 9 5 9 10 0 6 -7 10 -16 10 -8 0
-12 -4 -9 -10z"/>
<path d="M3157 5923 c-35 -6 -25 -23 14 -23 19 0 29 -5 29 -15 0 -8 7 -15 15
-15 8 0 15 7 15 15 0 8 8 15 18 15 9 1 -1 7 -23 15 -22 8 -40 14 -40 13 0 0
-12 -3 -28 -5z"/>
<path d="M2885 5909 c-11 -16 -1 -19 13 -3 7 8 8 14 3 14 -5 0 -13 -5 -16 -11z"/>
<path d="M3269 5845 c-26 -13 -50 -21 -54 -17 -5 4 -5 2 -2 -4 6 -11 -19 -29
-35 -26 -3 1 -12 -6 -20 -15 -11 -15 -11 -16 7 -9 67 27 79 29 83 18 5 -15 48
-16 57 -2 3 6 15 10 25 10 26 0 53 39 38 57 -16 20 -48 16 -99 -12z"/>
<path d="M3071 5758 c-11 -11 -18 -25 -15 -30 5 -8 54 35 54 48 0 11 -21 2
-39 -18z"/>
<path d="M4700 5760 c0 -5 5 -10 11 -10 5 0 7 5 4 10 -3 6 -8 10 -11 10 -2 0
-4 -4 -4 -10z"/>
<path d="M8880 5739 c-52 -4 -139 -19 -193 -34 -54 -14 -134 -28 -177 -30 -43
-2 -88 -8 -99 -14 -11 -6 -33 -11 -49 -11 -17 0 -32 -6 -35 -14 -3 -8 -19 -17
-36 -21 -43 -9 -69 -21 -204 -94 -54 -29 -84 -40 -99 -35 -16 5 -20 3 -15 -9
3 -9 -8 -27 -31 -48 -90 -80 -207 -193 -208 -201 -3 -19 -6 -24 -25 -47 -17
-21 -22 -23 -31 -10 -8 12 -9 12 -5 -2 3 -8 -8 -35 -24 -59 -16 -24 -29 -47
-29 -52 0 -14 -40 -100 -60 -128 -40 -57 -60 -103 -60 -138 -1 -20 -7 -55 -15
-77 -18 -47 -48 -252 -46 -310 1 -22 4 -57 7 -78 5 -31 3 -36 -10 -31 -13 5
-16 -2 -16 -41 0 -55 25 -116 45 -109 10 4 17 -8 25 -38 31 -121 129 -328 199
-423 21 -28 46 -66 56 -85 21 -42 112 -132 201 -200 35 -27 80 -64 98 -82 57
-55 334 -180 475 -214 111 -27 323 -30 487 -5 162 24 196 36 379 128 50 25 95
50 102 55 9 7 14 2 19 -19 4 -15 13 -34 21 -41 7 -7 13 -20 13 -29 0 -12 3
-13 14 -4 11 10 15 8 19 -6 4 -17 5 -17 6 0 1 20 12 22 29 5 10 -10 15 -10 22
1 10 16 103 17 108 1 7 -19 20 -10 30 19 9 24 14 28 37 23 l28 -5 -33 32 c-20
18 -27 31 -19 32 8 0 4 4 -9 9 -12 5 -25 16 -28 25 -4 8 -11 15 -16 15 -12 0
-48 39 -48 51 0 5 12 15 28 23 41 22 145 128 187 192 41 61 92 158 114 216 8
20 19 34 26 32 10 -4 59 129 79 211 2 11 2 -9 0 -45 -3 -36 -10 -74 -15 -85
-5 -11 -18 -47 -28 -80 -11 -33 -20 -53 -21 -45 -1 16 -69 -117 -69 -135 0 -5
9 9 20 32 13 25 26 40 34 37 22 -9 84 132 121 272 104 401 6 895 -246 1239
-22 30 -170 176 -210 208 -100 78 -150 112 -200 134 -30 13 -64 28 -75 33 -64
30 -180 46 -202 29 -8 -8 -26 -12 -39 -11 -25 4 -48 -26 -35 -47 11 -17 201
-111 201 -99 0 5 -7 11 -16 15 -24 9 -68 52 -61 59 3 3 36 -5 74 -19 37 -14
83 -30 101 -36 36 -11 92 -48 91 -59 -3 -19 2 -32 12 -32 6 0 8 7 5 16 -3 9
15 -4 41 -29 27 -25 62 -56 78 -68 161 -123 290 -321 379 -582 15 -43 25 -84
23 -90 -2 -7 -10 6 -17 28 -18 55 -111 231 -142 270 -52 65 -79 107 -81 126
-2 29 -92 123 -111 116 -7 -3 -26 7 -42 22 -78 71 -289 221 -312 221 -5 0 -36
13 -68 28 -33 16 -88 39 -124 51 -36 13 -72 26 -80 29 -43 15 -188 51 -209 52
-13 0 -22 3 -19 6 6 5 62 15 260 45 43 7 75 16 72 21 -3 4 5 8 17 8 17 0 19 3
10 14 -20 24 -204 37 -351 25z m-370 -73 c0 -2 -9 -6 -20 -9 -11 -3 -18 -1
-14 4 5 9 34 13 34 5z m415 -66 c17 -5 64 -19 105 -31 102 -28 149 -46 190
-73 19 -13 46 -27 60 -31 32 -10 198 -94 213 -109 7 -6 30 -23 52 -38 195
-133 393 -392 469 -613 10 -27 22 -59 28 -69 6 -11 12 -58 14 -105 1 -47 1
-75 -2 -61 -7 41 -34 143 -46 175 -23 63 -80 187 -100 220 -99 157 -97 154
-213 270 -94 94 -117 114 -175 155 -19 13 -37 27 -40 30 -14 18 -250 140 -270
140 -8 0 -28 7 -43 15 -80 42 -372 104 -500 106 l-62 1 45 9 c25 4 68 13 95
18 53 10 130 6 180 -9z m1162 -962 c-3 -8 -6 -5 -6 6 -1 11 2 17 5 13 3 -3 4
-12 1 -19z m-46 -881 c-10 -9 -11 -8 -5 6 3 10 9 15 12 12 3 -3 0 -11 -7 -18z"/>
<path d="M7728 5733 c-10 -2 -18 -9 -18 -14 0 -5 -9 -9 -20 -9 -11 0 -20 -7
-20 -15 0 -8 7 -15 17 -15 15 0 15 -1 0 -18 -10 -10 -17 -26 -17 -36 0 -13 7
-17 33 -14 17 2 31 8 30 14 -1 6 12 11 30 11 17 0 33 5 35 11 2 7 15 12 29 12
25 0 25 1 9 19 -17 18 -17 19 1 24 10 3 5 5 -13 6 -17 0 -37 8 -44 16 -13 15
-21 16 -52 8z"/>
<path d="M4760 5692 c0 -19 36 -46 44 -33 3 4 -6 18 -19 29 -22 20 -25 20 -25
4z"/>
<path d="M3120 5685 c-8 -9 -8 -15 -2 -15 12 0 26 19 19 26 -2 2 -10 -2 -17
-11z"/>
<path d="M9445 5690 c3 -5 10 -10 16 -10 5 0 9 5 9 10 0 6 -7 10 -16 10 -8 0
-12 -4 -9 -10z"/>
<path d="M4837 5664 c3 -7 9 -14 14 -14 14 0 10 17 -5 23 -10 4 -13 1 -9 -9z"/>
<path d="M7887 5673 c-35 -6 -25 -23 14 -23 19 0 29 -5 29 -15 0 -8 7 -15 15
-15 8 0 15 7 15 15 0 8 8 15 18 15 9 1 -1 7 -23 15 -22 8 -40 14 -40 13 0 0
-12 -3 -28 -5z"/>
<path d="M7615 5659 c-11 -16 -1 -19 13 -3 7 8 8 14 3 14 -5 0 -13 -5 -16 -11z"/>
<path d="M3028 5646 c-21 -15 -24 -38 -5 -30 14 5 41 44 30 44 -5 0 -16 -7
-25 -14z"/>
<path d="M4870 5642 c0 -12 19 -26 26 -19 2 2 -2 10 -11 17 -9 8 -15 8 -15 2z"/>
<path d="M7999 5595 c-26 -13 -50 -21 -54 -17 -5 4 -5 2 -2 -4 6 -11 -19 -29
-35 -26 -3 1 -12 -6 -20 -15 -11 -15 -11 -16 7 -9 67 27 79 29 83 18 5 -15 48
-16 57 -2 3 6 15 10 25 10 26 0 53 39 38 57 -16 20 -48 16 -99 -12z"/>
<path d="M3011 5579 c-17 -17 -31 -35 -31 -41 0 -5 13 4 29 21 16 17 34 31 40
31 6 0 11 5 11 10 0 18 -18 10 -49 -21z"/>
<path d="M7801 5508 c-11 -11 -18 -25 -15 -30 5 -8 54 35 54 48 0 11 -21 2
-39 -18z"/>
<path d="M9430 5510 c0 -5 5 -10 11 -10 5 0 7 5 4 10 -3 6 -8 10 -11 10 -2 0
-4 -4 -4 -10z"/>
<path d="M9490 5442 c0 -19 36 -46 44 -33 3 4 -6 18 -19 29 -22 20 -25 20 -25
4z"/>
<path d="M7850 5435 c-8 -9 -8 -15 -2 -15 12 0 26 19 19 26 -2 2 -10 -2 -17
-11z"/>
<path d="M9567 5414 c6 -15 23 -19 23 -5 0 5 -7 11 -14 14 -10 4 -13 1 -9 -9z"/>
<path d="M2807 5402 c-38 -41 -62 -142 -34 -142 16 0 35 32 57 96 21 66 12 85
-23 46z"/>
<path d="M7758 5396 c-21 -15 -24 -38 -5 -30 14 5 41 44 30 44 -5 0 -16 -7
-25 -14z"/>
<path d="M9600 5392 c0 -12 19 -26 26 -19 2 2 -2 10 -11 17 -9 8 -15 8 -15 2z"/>
<path d="M7741 5329 c-17 -17 -31 -35 -31 -41 0 -5 13 4 29 21 16 17 34 31 40
31 6 0 11 5 11 10 0 18 -18 10 -49 -21z"/>
<path d="M7537 5152 c-38 -41 -62 -142 -34 -142 16 0 35 32 57 96 21 66 12 85
-23 46z"/>
<path d="M2530 4513 c0 -12 5 -25 10 -28 13 -8 13 15 0 35 -8 12 -10 11 -10
-7z"/>
<path d="M5555 4413 c-19 -18 -19 -57 -1 -72 16 -13 118 -23 110 -10 -3 5 0 9
6 9 6 0 8 5 4 11 -4 7 -9 8 -13 1 -3 -5 -17 7 -30 28 -27 43 -54 55 -76 33z"/>
<path d="M2560 4351 c0 -5 5 -13 10 -16 6 -3 10 -2 10 4 0 5 -4 13 -10 16 -5
3 -10 2 -10 -4z"/>
<path d="M2631 4304 c0 -11 3 -14 6 -6 3 7 2 16 -1 19 -3 4 -6 -2 -5 -13z"/>
<path d="M2731 4264 c0 -11 3 -14 6 -6 3 7 2 16 -1 19 -3 4 -6 -2 -5 -13z"/>
<path d="M7260 4263 c0 -12 5 -25 10 -28 13 -8 13 15 0 35 -8 12 -10 11 -10
-7z"/>
<path d="M2690 4203 c0 -5 5 -15 10 -23 8 -12 10 -11 10 8 0 12 -4 22 -10 22
-5 0 -10 -3 -10 -7z"/>
<path d="M2771 4180 c11 -31 29 -41 29 -16 0 25 -12 46 -26 46 -10 0 -11 -6
-3 -30z"/>
<path d="M10285 4163 c-19 -18 -19 -57 -1 -72 16 -13 118 -23 110 -10 -3 5 0
9 6 9 6 0 8 5 4 11 -4 7 -9 8 -13 1 -3 -5 -17 7 -30 28 -27 43 -54 55 -76 33z"/>
<path d="M7290 4101 c0 -5 5 -13 10 -16 6 -3 10 -2 10 4 0 5 -4 13 -10 16 -5
3 -10 2 -10 -4z"/>
<path d="M7361 4054 c0 -11 3 -14 6 -6 3 7 2 16 -1 19 -3 4 -6 -2 -5 -13z"/>
<path d="M7461 4014 c0 -11 3 -14 6 -6 3 7 2 16 -1 19 -3 4 -6 -2 -5 -13z"/>
<path d="M7420 3953 c0 -5 5 -15 10 -23 8 -12 10 -11 10 8 0 12 -4 22 -10 22
-5 0 -10 -3 -10 -7z"/>
<path d="M7501 3930 c11 -31 29 -41 29 -16 0 25 -12 46 -26 46 -10 0 -11 -6
-3 -30z"/>
<path d="M5210 3869 c0 -5 5 -7 10 -4 6 3 10 8 10 11 0 2 -4 4 -10 4 -5 0 -10
-5 -10 -11z"/>
<path d="M3020 3795 c7 -8 17 -15 22 -15 6 0 5 7 -2 15 -7 8 -17 15 -22 15 -6
0 -5 -7 2 -15z"/>
<path d="M5103 3737 c-43 -30 -42 -42 2 -16 19 12 35 25 35 30 0 11 2 12 -37
-14z"/>
<path d="M9940 3619 c0 -5 5 -7 10 -4 6 3 10 8 10 11 0 2 -4 4 -10 4 -5 0 -10
-5 -10 -11z"/>
<path d="M5080 3552 c0 -10 41 -24 49 -17 6 7 0 11 -26 19 -13 4 -23 3 -23 -2z"/>
<path d="M7750 3545 c7 -8 17 -15 22 -15 6 0 5 7 -2 15 -7 8 -17 15 -22 15 -6
0 -5 -7 2 -15z"/>
<path d="M9833 3487 c-43 -30 -42 -42 2 -16 19 12 35 25 35 30 0 11 2 12 -37
-14z"/>
<path d="M1870 3459 c-52 -4 -139 -19 -193 -34 -54 -14 -134 -28 -177 -30 -43
-2 -88 -8 -99 -14 -11 -6 -33 -11 -49 -11 -17 0 -32 -6 -35 -14 -3 -8 -19 -17
-36 -21 -43 -9 -69 -21 -204 -94 -54 -29 -84 -40 -99 -35 -16 5 -20 3 -15 -9
3 -9 -8 -27 -31 -48 -90 -80 -207 -193 -208 -201 -3 -19 -6 -24 -25 -47 -17
-21 -22 -23 -31 -10 -8 12 -9 12 -5 -2 3 -8 -8 -35 -24 -59 -16 -24 -29 -47
-29 -52 0 -14 -40 -100 -60 -128 -40 -57 -60 -103 -60 -138 -1 -20 -7 -55 -15
-77 -18 -47 -48 -252 -46 -310 1 -22 4 -57 7 -78 5 -31 3 -36 -10 -31 -13 5
-16 -2 -16 -41 0 -55 25 -116 45 -109 10 4 17 -8 25 -38 31 -121 129 -328 199
-423 21 -28 46 -66 56 -85 21 -42 112 -132 201 -200 35 -27 80 -64 98 -82 57
-55 334 -180 475 -214 111 -27 323 -30 487 -5 162 24 196 36 379 128 50 25 95
50 102 55 9 7 14 2 19 -19 4 -15 13 -34 21 -41 7 -7 13 -20 13 -29 0 -12 3
-13 14 -4 11 10 15 8 19 -6 4 -17 5 -17 6 0 1 20 12 22 29 5 10 -10 15 -10 22
1 10 16 103 17 108 1 7 -19 20 -10 30 19 9 24 14 28 37 23 l28 -5 -33 32 c-20
18 -27 31 -19 32 8 0 4 4 -9 9 -12 5 -25 16 -28 25 -4 8 -11 15 -16 15 -12 0
-48 39 -48 51 0 5 12 15 28 23 41 22 145 128 187 192 41 61 92 158 114 216 8
20 19 34 26 32 10 -4 59 129 79 211 2 11 2 -9 0 -45 -3 -36 -10 -74 -15 -85
-5 -11 -18 -47 -28 -80 -11 -33 -20 -53 -21 -45 -1 16 -69 -117 -69 -135 0 -5
9 9 20 32 13 25 26 40 34 37 22 -9 84 132 121 272 104 401 6 895 -246 1239
-22 30 -170 176 -210 208 -100 78 -150 112 -200 134 -30 13 -64 28 -75 33 -64
30 -180 46 -202 29 -8 -8 -26 -12 -39 -11 -25 4 -48 -26 -35 -47 11 -17 201
-111 201 -99 0 5 -7 11 -16 15 -24 9 -68 52 -61 59 3 3 36 -5 74 -19 37 -14
83 -30 101 -36 36 -11 92 -48 91 -59 -3 -19 2 -32 12 -32 6 0 8 7 5 16 -3 9
15 -4 41 -29 27 -25 62 -56 78 -68 161 -123 290 -321 379 -582 15 -43 25 -84
23 -90 -2 -7 -10 6 -17 28 -18 55 -111 231 -142 270 -52 65 -79 107 -81 126
-2 29 -92 123 -111 116 -7 -3 -26 7 -42 22 -78 71 -289 221 -312 221 -5 0 -36
13 -68 28 -33 16 -88 39 -124 51 -36 13 -72 26 -80 29 -43 15 -188 51 -209 52
-13 0 -22 3 -19 6 6 5 62 15 260 45 43 7 75 16 72 21 -3 4 5 8 17 8 17 0 19 3
10 14 -20 24 -204 37 -351 25z m-370 -73 c0 -2 -9 -6 -20 -9 -11 -3 -18 -1
-14 4 5 9 34 13 34 5z m415 -66 c17 -5 64 -19 105 -31 102 -28 149 -46 190
-73 19 -13 46 -27 60 -31 32 -10 198 -94 213 -109 7 -6 30 -23 52 -38 195
-133 393 -392 469 -613 10 -27 22 -59 28 -69 6 -11 12 -58 14 -105 1 -47 1
-75 -2 -61 -7 41 -34 143 -46 175 -23 63 -80 187 -100 220 -99 157 -97 154
-213 270 -94 94 -117 114 -175 155 -19 13 -37 27 -40 30 -14 18 -250 140 -270
140 -8 0 -28 7 -43 15 -80 42 -372 104 -500 106 l-62 1 45 9 c25 4 68 13 95
18 53 10 130 6 180 -9z m1162 -962 c-3 -8 -6 -5 -6 6 -1 11 2 17 5 13 3 -3 4
-12 1 -19z m-46 -881 c-10 -9 -11 -8 -5 6 3 10 9 15 12 12 3 -3 0 -11 -7 -18z"/>
<path d="M11080 3459 c-52 -4 -139 -19 -193 -34 -54 -14 -134 -28 -177 -30
-43 -2 -88 -8 -99 -14 -11 -6 -33 -11 -49 -11 -17 0 -32 -6 -35 -14 -3 -8 -19
-17 -36 -21 -43 -9 -69 -21 -204 -94 -54 -29 -84 -40 -99 -35 -16 5 -20 3 -15
-9 3 -9 -8 -27 -31 -48 -90 -80 -207 -193 -208 -201 -3 -19 -6 -24 -25 -47
-17 -21 -22 -23 -31 -10 -8 12 -9 12 -5 -2 3 -8 -8 -35 -24 -59 -16 -24 -29
-47 -29 -52 0 -14 -40 -100 -60 -128 -40 -57 -60 -103 -60 -138 -1 -20 -7 -55
-15 -77 -18 -47 -48 -252 -46 -310 1 -22 4 -57 7 -78 5 -31 3 -36 -10 -31 -13
5 -16 -2 -16 -41 0 -55 25 -116 45 -109 10 4 17 -8 25 -38 31 -121 129 -328
199 -423 21 -28 46 -66 56 -85 21 -42 112 -132 201 -200 35 -27 80 -64 98 -82
57 -55 334 -180 475 -214 111 -27 323 -30 487 -5 162 24 196 36 379 128 50 25
95 50 102 55 9 7 14 2 19 -19 4 -15 13 -34 21 -41 7 -7 13 -20 13 -29 0 -12 3
-13 14 -4 11 10 15 8 19 -6 4 -17 5 -17 6 0 1 20 12 22 29 5 10 -10 15 -10 22
1 10 16 103 17 108 1 7 -19 20 -10 30 19 9 24 14 28 37 23 l28 -5 -33 32 c-20
18 -27 31 -19 32 8 0 4 4 -9 9 -12 5 -25 16 -28 25 -4 8 -11 15 -16 15 -12 0
-48 39 -48 51 0 5 12 15 28 23 41 22 145 128 187 192 41 61 92 158 114 216 8
20 19 34 26 32 10 -4 59 129 79 211 2 11 2 -9 0 -45 -3 -36 -10 -74 -15 -85
-5 -11 -18 -47 -28 -80 -11 -33 -20 -53 -21 -45 -1 16 -69 -117 -69 -135 0 -5
9 9 20 32 13 25 26 40 34 37 22 -9 84 132 121 272 104 401 6 895 -246 1239
-22 30 -170 176 -210 208 -100 78 -150 112 -200 134 -30 13 -64 28 -75 33 -64
30 -180 46 -202 29 -8 -8 -26 -12 -39 -11 -25 4 -48 -26 -35 -47 11 -17 201
-111 201 -99 0 5 -7 11 -16 15 -24 9 -68 52 -61 59 3 3 36 -5 74 -19 37 -14
83 -30 101 -36 36 -11 92 -48 91 -59 -3 -19 2 -32 12 -32 6 0 8 7 5 16 -3 9
15 -4 41 -29 27 -25 62 -56 78 -68 161 -123 290 -321 379 -582 15 -43 25 -84
23 -90 -2 -7 -10 6 -17 28 -18 55 -111 231 -142 270 -52 65 -79 107 -81 126
-2 29 -92 123 -111 116 -7 -3 -26 7 -42 22 -78 71 -289 221 -312 221 -5 0 -36
13 -68 28 -33 16 -88 39 -124 51 -36 13 -72 26 -80 29 -43 15 -188 51 -209 52
-13 0 -22 3 -19 6 6 5 62 15 260 45 43 7 75 16 72 21 -3 4 5 8 17 8 17 0 19 3
10 14 -20 24 -204 37 -351 25z m-370 -73 c0 -2 -9 -6 -20 -9 -11 -3 -18 -1
-14 4 5 9 34 13 34 5z m415 -66 c17 -5 64 -19 105 -31 102 -28 149 -46 190
-73 19 -13 46 -27 60 -31 32 -10 198 -94 213 -109 7 -6 30 -23 52 -38 195
-133 393 -392 469 -613 10 -27 22 -59 28 -69 6 -11 12 -58 14 -105 1 -47 1
-75 -2 -61 -7 41 -34 143 -46 175 -23 63 -80 187 -100 220 -99 157 -97 154
-213 270 -94 94 -117 114 -175 155 -19 13 -37 27 -40 30 -14 18 -250 140 -270
140 -8 0 -28 7 -43 15 -80 42 -372 104 -500 106 l-62 1 45 9 c25 4 68 13 95
18 53 10 130 6 180 -9z m1162 -962 c-3 -8 -6 -5 -6 6 -1 11 2 17 5 13 3 -3 4
-12 1 -19z m-46 -881 c-10 -9 -11 -8 -5 6 3 10 9 15 12 12 3 -3 0 -11 -7 -18z"/>
<path d="M718 3453 c-10 -2 -18 -9 -18 -14 0 -5 -9 -9 -20 -9 -11 0 -20 -7
-20 -15 0 -8 7 -15 17 -15 15 0 15 -1 0 -18 -10 -10 -17 -26 -17 -36 0 -13 7
-17 33 -14 17 2 31 8 30 14 -1 6 12 11 30 11 17 0 33 5 35 11 2 7 15 12 29 12
25 0 25 1 9 19 -17 18 -17 19 1 24 10 3 5 5 -13 6 -17 0 -37 8 -44 16 -13 15
-21 16 -52 8z"/>
<path d="M9928 3453 c-10 -2 -18 -9 -18 -14 0 -5 -9 -9 -20 -9 -11 0 -20 -7
-20 -15 0 -8 7 -15 17 -15 15 0 15 -1 0 -18 -10 -10 -17 -26 -17 -36 0 -13 7
-17 33 -14 17 2 31 8 30 14 -1 6 12 11 30 11 17 0 33 5 35 11 2 7 15 12 29 12
25 0 25 1 9 19 -17 18 -17 19 1 24 10 3 5 5 -13 6 -17 0 -37 8 -44 16 -13 15
-21 16 -52 8z"/>
<path d="M2435 3410 c3 -5 10 -10 16 -10 5 0 9 5 9 10 0 6 -7 10 -16 10 -8 0
-12 -4 -9 -10z"/>
<path d="M11645 3410 c3 -5 10 -10 16 -10 5 0 9 5 9 10 0 6 -7 10 -16 10 -8 0
-12 -4 -9 -10z"/>
<path d="M877 3393 c-35 -6 -25 -23 14 -23 19 0 29 -5 29 -15 0 -8 7 -15 15
-15 8 0 15 7 15 15 0 8 8 15 18 15 9 1 -1 7 -23 15 -22 8 -40 14 -40 13 0 0
-12 -3 -28 -5z"/>
<path d="M10087 3393 c-35 -6 -25 -23 14 -23 19 0 29 -5 29 -15 0 -8 7 -15 15
-15 8 0 15 7 15 15 0 8 8 15 18 15 9 1 -1 7 -23 15 -22 8 -40 14 -40 13 0 0
-12 -3 -28 -5z"/>
<path d="M605 3379 c-11 -16 -1 -19 13 -3 7 8 8 14 3 14 -5 0 -13 -5 -16 -11z"/>
<path d="M9815 3379 c-11 -16 -1 -19 13 -3 7 8 8 14 3 14 -5 0 -13 -5 -16 -11z"/>
<path d="M989 3315 c-26 -13 -50 -21 -54 -17 -5 4 -5 2 -2 -4 6 -11 -19 -29
-35 -26 -3 1 -12 -6 -20 -15 -11 -15 -11 -16 7 -9 67 27 79 29 83 18 5 -15 48
-16 57 -2 3 6 15 10 25 10 26 0 53 39 38 57 -16 20 -48 16 -99 -12z"/>
<path d="M10199 3315 c-26 -13 -50 -21 -54 -17 -5 4 -5 2 -2 -4 6 -11 -19 -29
-35 -26 -3 1 -12 -6 -20 -15 -11 -15 -11 -16 7 -9 67 27 79 29 83 18 5 -15 48
-16 57 -2 3 6 15 10 25 10 26 0 53 39 38 57 -16 20 -48 16 -99 -12z"/>
<path d="M4276 3308 c-17 -24 -11 -41 30 -78 15 -14 24 -19 20 -12 -4 6 -4 12
1 12 4 0 9 17 10 37 3 60 -31 84 -61 41z"/>
<path d="M9810 3302 c0 -10 41 -24 49 -17 6 7 0 11 -26 19 -13 4 -23 3 -23 -2z"/>
<path d="M791 3228 c-11 -11 -18 -25 -15 -30 5 -8 54 35 54 48 0 11 -21 2 -39
-18z"/>
<path d="M10001 3228 c-11 -11 -18 -25 -15 -30 5 -8 54 35 54 48 0 11 -21 2
-39 -18z"/>
<path d="M2420 3230 c0 -5 5 -10 11 -10 5 0 7 5 4 10 -3 6 -8 10 -11 10 -2 0
-4 -4 -4 -10z"/>
<path d="M11630 3230 c0 -5 5 -10 11 -10 5 0 7 5 4 10 -3 6 -8 10 -11 10 -2 0
-4 -4 -4 -10z"/>
<path d="M2480 3162 c0 -19 36 -46 44 -33 3 4 -6 18 -19 29 -22 20 -25 20 -25
4z"/>
<path d="M11690 3162 c0 -19 36 -46 44 -33 3 4 -6 18 -19 29 -22 20 -25 20
-25 4z"/>
<path d="M840 3155 c-8 -9 -8 -15 -2 -15 12 0 26 19 19 26 -2 2 -10 -2 -17
-11z"/>
<path d="M10050 3155 c-8 -9 -8 -15 -2 -15 12 0 26 19 19 26 -2 2 -10 -2 -17
-11z"/>
<path d="M2557 3134 c6 -15 23 -19 23 -5 0 5 -7 11 -14 14 -10 4 -13 1 -9 -9z"/>
<path d="M11767 3134 c6 -15 23 -19 23 -5 0 5 -7 11 -14 14 -10 4 -13 1 -9 -9z"/>
<path d="M748 3116 c-21 -15 -24 -38 -5 -30 14 5 41 44 30 44 -5 0 -16 -7 -25
-14z"/>
<path d="M9958 3116 c-21 -15 -24 -38 -5 -30 14 5 41 44 30 44 -5 0 -16 -7
-25 -14z"/>
<path d="M2590 3112 c0 -12 19 -26 26 -19 2 2 -2 10 -11 17 -9 8 -15 8 -15 2z"/>
<path d="M11800 3112 c0 -12 19 -26 26 -19 2 2 -2 10 -11 17 -9 8 -15 8 -15 2z"/>
<path d="M731 3049 c-17 -17 -31 -35 -31 -41 0 -5 13 4 29 21 16 17 34 31 40
31 6 0 11 5 11 10 0 18 -18 10 -49 -21z"/>
<path d="M9006 3058 c-17 -24 -11 -41 30 -78 15 -14 24 -19 20 -12 -4 6 -4 12
1 12 4 0 9 17 10 37 3 60 -31 84 -61 41z"/>
<path d="M9941 3049 c-17 -17 -31 -35 -31 -41 0 -5 13 4 29 21 16 17 34 31 40
31 6 0 11 5 11 10 0 18 -18 10 -49 -21z"/>
<path d="M527 2872 c-38 -41 -62 -142 -34 -142 16 0 35 32 57 96 21 66 12 85
-23 46z"/>
<path d="M9737 2872 c-38 -41 -62 -142 -34 -142 16 0 35 32 57 96 21 66 12 85
-23 46z"/>
<path d="M250 1983 c0 -12 5 -25 10 -28 13 -8 13 15 0 35 -8 12 -10 11 -10 -7z"/>
<path d="M9460 1983 c0 -12 5 -25 10 -28 13 -8 13 15 0 35 -8 12 -10 11 -10
-7z"/>
<path d="M3275 1883 c-19 -18 -19 -57 -1 -72 16 -13 118 -23 110 -10 -3 5 0 9
6 9 6 0 8 5 4 11 -4 7 -9 8 -13 1 -3 -5 -17 7 -30 28 -27 43 -54 55 -76 33z"/>
<path d="M12485 1883 c-19 -18 -19 -57 -1 -72 16 -13 118 -23 110 -10 -3 5 0
9 6 9 6 0 8 5 4 11 -4 7 -9 8 -13 1 -3 -5 -17 7 -30 28 -27 43 -54 55 -76 33z"/>
<path d="M280 1821 c0 -5 5 -13 10 -16 6 -3 10 -2 10 4 0 5 -4 13 -10 16 -5 3
-10 2 -10 -4z"/>
<path d="M9490 1821 c0 -5 5 -13 10 -16 6 -3 10 -2 10 4 0 5 -4 13 -10 16 -5
3 -10 2 -10 -4z"/>
<path d="M351 1774 c0 -11 3 -14 6 -6 3 7 2 16 -1 19 -3 4 -6 -2 -5 -13z"/>
<path d="M9561 1774 c0 -11 3 -14 6 -6 3 7 2 16 -1 19 -3 4 -6 -2 -5 -13z"/>
<path d="M451 1734 c0 -11 3 -14 6 -6 3 7 2 16 -1 19 -3 4 -6 -2 -5 -13z"/>
<path d="M9661 1734 c0 -11 3 -14 6 -6 3 7 2 16 -1 19 -3 4 -6 -2 -5 -13z"/>
<path d="M410 1673 c0 -5 5 -15 10 -23 8 -12 10 -11 10 8 0 12 -4 22 -10 22
-5 0 -10 -3 -10 -7z"/>
<path d="M491 1650 c11 -31 29 -41 29 -16 0 25 -12 46 -26 46 -10 0 -11 -6 -3
-30z"/>
<path d="M9620 1673 c0 -5 5 -15 10 -23 8 -12 10 -11 10 8 0 12 -4 22 -10 22
-5 0 -10 -3 -10 -7z"/>
<path d="M9701 1650 c11 -31 29 -41 29 -16 0 25 -12 46 -26 46 -10 0 -11 -6
-3 -30z"/>
<path d="M2930 1339 c0 -5 5 -7 10 -4 6 3 10 8 10 11 0 2 -4 4 -10 4 -5 0 -10
-5 -10 -11z"/>
<path d="M12140 1339 c0 -5 5 -7 10 -4 6 3 10 8 10 11 0 2 -4 4 -10 4 -5 0
-10 -5 -10 -11z"/>
<path d="M740 1265 c7 -8 17 -15 22 -15 6 0 5 7 -2 15 -7 8 -17 15 -22 15 -6
0 -5 -7 2 -15z"/>
<path d="M9950 1265 c7 -8 17 -15 22 -15 6 0 5 7 -2 15 -7 8 -17 15 -22 15 -6
0 -5 -7 2 -15z"/>
<path d="M2823 1207 c-43 -30 -42 -42 2 -16 19 12 35 25 35 30 0 11 2 12 -37
-14z"/>
<path d="M12033 1207 c-43 -30 -42 -42 2 -16 19 12 35 25 35 30 0 11 2 12 -37
-14z"/>
<path d="M2800 1022 c0 -10 41 -24 49 -17 6 7 0 11 -26 19 -13 4 -23 3 -23 -2z"/>
<path d="M12010 1022 c0 -10 41 -24 49 -17 6 7 0 11 -26 19 -13 4 -23 3 -23
-2z"/>
<path d="M1996 778 c-17 -24 -11 -41 30 -78 15 -14 24 -19 20 -12 -4 6 -4 12
1 12 4 0 9 17 10 37 3 60 -31 84 -61 41z"/>
<path d="M11206 778 c-17 -24 -11 -41 30 -78 15 -14 24 -19 20 -12 -4 6 -4 12
1 12 4 0 9 17 10 37 3 60 -31 84 -61 41z"/>
</g>
</svg>
